Coordinates
version=1
nRows=13
nColumns=22
inDegrees=yes

Units are S.I. units (second, meters, Newtons, ...)
If the header above contains a line with 'inDegrees', this indicates whether rotational values are in degrees (yes) or radians (no).

endheader
time	pelvis_tilt	pelvis_list	pelvis_rotation	pelvis_tx	pelvis_ty	pelvis_tz	hip_flexion_r	hip_adduction_r	hip_rotation_r	knee_angle_r	ankle_angle_r	subtalar_angle_r	hip_flexion_l	hip_adduction_l	hip_rotation_l	knee_angle_l	ankle_angle_l	subtalar_angle_l	lumbar_extension	lumbar_bending	lumbar_rotation
      2.34000000	     -0.87139539	     -4.59593552	    -34.91307226	     -0.55243854	      1.00788450	     -0.14169729	     13.16390040	     10.26403698	     -9.99662313	    -23.28527296	      9.07876796	     -9.96348646	     12.26405216	     -8.60620237	     -6.97615952	    -63.63961059	      1.89155764	      4.62555267	    -14.08101202	      4.88622859	     -0.34849692
      2.35000000	     -0.93567131	     -4.58843632	    -35.55294885	     -0.54728727	      1.00872382	     -0.13711260	     12.52428331	     10.46284495	     -9.37055927	    -22.89747133	      9.26932560	     -9.97698123	     13.34617529	     -8.77835094	     -6.54087603	    -63.58458514	      2.46688939	      4.06622929	    -14.16518761	      4.76471514	      0.12447036
      2.36000000	     -1.00610489	     -4.57949712	    -36.21019459	     -0.54219723	      1.00951003	     -0.13254164	     11.89277681	     10.64986352	     -8.74182238	    -22.51358911	      9.43685641	     -9.98195411	     14.38269783	     -8.92047290	     -6.06133000	    -63.30016194	      3.08070332	      3.79599518	    -14.24714433	      4.64601042	      0.61870936
      2.37000000	     -1.08402577	     -4.53241163	    -36.87925017	     -0.53718299	      1.01022348	     -0.12798551	     11.29543297	     10.80154601	     -8.06622406	    -22.13548067	      9.56934730	     -9.96500393	     15.39209145	     -9.00420414	     -5.55076064	    -62.77739040	      3.63154610	      3.36244922	    -14.29948548	      4.49440772	      1.10235091
      2.38000000	     -1.16097407	     -4.48332965	    -37.54161981	     -0.53215483	      1.01087087	     -0.12347911	     10.70099971	     10.92645992	     -7.43886483	    -21.76232695	      9.73494420	     -9.94528962	     16.34427893	     -9.05099015	     -4.99557593	    -62.03709995	      4.24057686	      3.08340284	    -14.35080978	      4.35168712	      1.57894425
      2.39000000	     -1.24046338	     -4.43030041	    -38.19675018	     -0.52711402	      1.01143489	     -0.11902407	     10.12193314	     11.02742238	     -6.84195045	    -21.41039432	      9.91334945	     -9.92491668	     17.24700011	     -9.06786378	     -4.40631711	    -61.09525960	      4.87366920	      2.89589022	    -14.39714953	      4.21758075	      2.05027259
      2.40000000	     -1.32878409	     -4.37188746	    -38.86521726	     -0.52208075	      1.01192690	     -0.11456459	      9.55143376	     11.12142423	     -6.21192515	    -21.05754557	     10.08262368	     -9.88810845	     18.09680193	     -9.07108354	     -3.81517180	    -59.95499234	      5.46904402	      2.69339665	    -14.43171414	      4.08783529	      2.52164014
      2.41000000	     -1.42025345	     -4.31310259	    -39.51737405	     -0.51700520	      1.01234712	     -0.11014358	      8.98624496	     11.19839535	     -5.60126924	    -20.70986554	     10.26297713	     -9.84328853	     18.89345852	     -9.05543510	     -3.20186166	    -58.63209355	      6.04591564	      2.52109951	    -14.46172817	      3.97272818	      2.96485062
      2.42000000	     -1.51661256	     -4.25798218	    -40.16660520	     -0.51190080	      1.01269504	     -0.10573571	      8.42397785	     11.26741605	     -4.98968443	    -20.36781405	     10.44793991	     -9.78642891	     19.63361902	     -9.03305225	     -2.58220694	    -57.14162115	      6.57584803	      2.37043358	    -14.48900685	      3.87318278	      3.39008023
      2.43000000	     -1.61404338	     -4.21063521	    -40.81781809	     -0.50675821	      1.01298917	     -0.10134535	      7.85915694	     11.32963233	     -4.36666385	    -20.03463661	     10.63936716	     -9.71011140	     20.30727333	     -9.01320553	     -1.97941409	    -55.49009982	      7.05115365	      2.24422947	    -14.52140185	      3.79352013	      3.81317822
      2.44000000	     -1.72860112	     -4.15785656	    -41.45008735	     -0.50155512	      1.01317222	     -0.09696292	      7.31739057	     11.38065014	     -3.78907642	    -19.71292736	     10.85472972	     -9.65033536	     20.94407447	     -8.99572779	     -1.37961046	    -53.69921150	      7.51717026	      2.21113318	    -14.52721247	      3.73189835	      4.20725092
      2.45000000	     -1.84108286	     -4.11292233	    -42.08524210	     -0.49633330	      1.01330751	     -0.09255993	      6.76957002	     11.42869373	     -3.18494358	    -19.40018502	     11.06808342	     -9.57699394	     21.51175444	     -8.98697383	     -0.80181847	    -51.77229104	      7.88525856	      2.23469021	    -14.53892068	      3.67764398	      4.58624992
      2.46000000	     -1.94344977	     -4.08141219	    -42.71282818	     -0.49106741	      1.01340710	     -0.08816634	      6.20750028	     11.46764372	     -2.56941880	    -19.09900653	     11.28644183	     -9.48427379	     22.00020275	     -8.98521343	     -0.24897066	    -49.71687030	      8.16989041	      2.33849673	    -14.57105881	      3.63587497	      4.95544428
